<?xml version="1.0" encoding="UTF-8"?>
<svg width="760px" height="908px" viewBox="0 0 760 908" version="1.1" xmlns="http://www.w3.org/2000/svg" xmlns:xlink="http://www.w3.org/1999/xlink">
    <!-- Generator: Sketch 45.1 (43504) - http://www.bohemiancoding.com/sketch -->
    <title>Atomic Copy</title>
    <desc>Created with Sketch.</desc>
    <defs></defs>
    <g id="Welcome" stroke="none" stroke-width="1" fill="none" fill-rule="evenodd" opacity="0.204313859">
        <g id="Atomic-Copy" transform="translate(-58.000000, 4.000000)" stroke="#4A4A4A">
            <ellipse id="Oval" stroke-width="8" cx="438" cy="450" rx="120" ry="450"></ellipse>
            <path d="M438,900 C504.27417,900 558,698.528137 558,450 C558,201.471863 504.27417,0 438,0 C406.635044,0 378.080611,45.1247871 356.701466,119.006487 C332.906466,201.236862 318,319.090447 318,450 C318,698.528137 371.72583,900 438,900 Z" id="Oval" stroke-width="8" transform="translate(438.000000, 450.000000) rotate(55.000000) translate(-438.000000, -450.000000) "></path>
            <ellipse id="Top-Electron" fill="#4A4A4A" cx="513.5" cy="79" rx="31.5" ry="31"></ellipse>
            <ellipse id="Top-Electron" fill="#4A4A4A" cx="624.5" cy="686" rx="31.5" ry="31"></ellipse>
            <ellipse id="Top-Electron" fill="#4A4A4A" cx="174.5" cy="512" rx="31.5" ry="31"></ellipse>
            <ellipse id="Center-Electron" fill="#4A4A4A" cx="438.5" cy="450" rx="31.5" ry="31"></ellipse>
            <path d="M438,900 C504.27417,900 558,698.528137 558,450 C558,201.471863 504.27417,0 438,0 C371.72583,0 318,201.471863 318,450 C318,698.528137 371.72583,900 438,900 Z M438,900 C504.27417,900 558,698.528137 558,450 C558,201.471863 504.27417,0 438,0 C371.72583,0 318,201.471863 318,450 C318,698.528137 371.72583,900 438,900 Z" id="Oval" stroke-width="8" transform="translate(438.000000, 450.000000) rotate(125.000000) translate(-438.000000, -450.000000) "></path>
        </g>
    </g>
</svg>