<?xml version="1.0" encoding="UTF-8"?>
<svg width="697px" height="562px" viewBox="0 0 697 562" version="1.1" xmlns="http://www.w3.org/2000/svg" xmlns:xlink="http://www.w3.org/1999/xlink">
    <!-- Generator: Sketch 45.1 (43504) - http://www.bohemiancoding.com/sketch -->
    <title>Atomic Copy</title>
    <desc>Created with Sketch.</desc>
    <defs>
        <rect id="path-1" x="0.46169685" y="0" width="725.405667" height="563.5"></rect>
    </defs>
    <g id="Welcome" stroke="none" stroke-width="1" fill="none" fill-rule="evenodd">
        <g id="Atomic-Copy" transform="translate(-29.000000, -2.000000)">
            <mask id="mask-2" fill="white">
                <use xlink:href="#path-1"></use>
            </mask>
            <use id="Mask" fill-opacity="0" fill="#FFFFFF" style="mix-blend-mode: color;" xlink:href="#path-1"></use>
            <g opacity="0.204313859" mask="url(#mask-2)" stroke="#4A4A4A">
                <g transform="translate(-29.000000, 6.000000)">
                    <ellipse id="Oval" stroke-width="8" fill="none" cx="438" cy="450" rx="120" ry="450"></ellipse>
                    <path d="M438,900 C504.27417,900 558,698.528137 558,450 C558,201.471863 504.27417,0 438,0 C406.635044,0 378.080611,45.1247871 356.701466,119.006487 C332.906466,201.236862 318,319.090447 318,450 C318,698.528137 371.72583,900 438,900 Z" id="Oval" stroke-width="8" fill="none" transform="translate(438.000000, 450.000000) rotate(55.000000) translate(-438.000000, -450.000000) "></path>
                    <ellipse id="Top-Electron" stroke-width="1" fill="#4A4A4A" fill-rule="evenodd" cx="513.5" cy="79" rx="31.5" ry="31"></ellipse>
                    <ellipse id="Top-Electron" stroke-width="1" fill="#4A4A4A" fill-rule="evenodd" cx="174.5" cy="512" rx="31.5" ry="31"></ellipse>
                    <ellipse id="Center-Electron" stroke-width="1" fill="#4A4A4A" fill-rule="evenodd" cx="438.5" cy="450" rx="31.5" ry="31"></ellipse>
                    <path d="M438,900 C504.27417,900 558,698.528137 558,450 C558,201.471863 504.27417,0 438,0 C371.72583,0 318,201.471863 318,450 C318,698.528137 371.72583,900 438,900 Z M438,900 C504.27417,900 558,698.528137 558,450 C558,201.471863 504.27417,0 438,0 C371.72583,0 318,201.471863 318,450 C318,698.528137 371.72583,900 438,900 Z" id="Oval" stroke-width="8" fill="none" transform="translate(438.000000, 450.000000) rotate(125.000000) translate(-438.000000, -450.000000) "></path>
                </g>
            </g>
        </g>
    </g>
</svg>